<svg width="102" height="40" viewBox="0 0 102 40" fill="none" xmlns="http://www.w3.org/2000/svg">
<path d="M0.381836 38.8859V8.96875H18.4904V13.4124H5.07591V21.152H15.8825V25.5959H5.07591V38.8859H0.381836Z" fill="white"/>
<path d="M28.0109 38.886V8.96885H45.7232V13.4126H32.705V20.7775H43.2196V25.2203H32.705V34.4422H46.1611V38.886H28.0109ZM33.6854 6.59061L36.5854 0.269287H42.6146L37.1069 6.59061H33.6854Z" fill="white"/>
<path d="M54.0735 30.8949L57.9123 28.4538C58.997 32.6684 61.0072 34.7752 63.9418 34.7752C65.277 34.7752 66.3691 34.3581 67.2171 33.5239C68.0789 32.6886 68.5109 31.6113 68.5109 30.29C68.5109 29.3719 68.1978 28.5653 67.5716 27.8701C66.9454 27.1749 66.16 26.6114 65.2143 26.1805C64.2825 25.7347 63.2604 25.2274 62.1471 24.6574C61.0348 24.0864 60.0053 23.4953 59.0597 22.884C58.1278 22.2716 57.3488 21.4161 56.7236 20.3176C56.0975 19.2192 55.7844 17.9466 55.7844 16.5C55.7844 14.2468 56.5358 12.3761 58.0376 10.8879C59.5532 9.38588 61.4105 8.63477 63.6075 8.63477C67.2245 8.63477 69.9713 10.3176 71.8488 13.6834L68.0513 16.2081C66.8828 14.0103 65.4022 12.9115 63.6075 12.9115C62.6618 12.9115 61.904 13.2245 61.3341 13.8504C60.7631 14.4763 60.4787 15.2413 60.4787 16.1455C60.4787 17.2302 60.917 18.1684 61.7926 18.9613C62.6831 19.7403 63.7539 20.4217 65.0053 21.0065C66.2576 21.5902 67.509 22.2164 68.7603 22.884C70.0126 23.5515 71.0761 24.4972 71.9528 25.7209C72.8432 26.9446 73.2879 28.4125 73.2879 30.1233C73.2879 32.835 72.4113 35.0331 70.659 36.7153C68.9205 38.3848 66.6811 39.219 63.9418 39.219C61.3829 39.219 59.2337 38.4538 57.4952 36.9244C55.7568 35.3801 54.6158 33.371 54.0735 30.8949Z" fill="white"/>
<path d="M79.7628 13.4124V8.96875H101.209V13.4124H92.8226V38.8859H88.1283V13.4124H79.7628Z" fill="white"/>
</svg>
