<svg width="169" height="26" viewBox="0 0 169 26" fill="none" xmlns="http://www.w3.org/2000/svg">
<path d="M9.73324 7.87406H2.85482V11.489H8.42779V13.497H2.85482V19.622H0.645752V5.86548H9.73324V7.87406Z" fill="white"/>
<path d="M15.9069 19.6218H13.6979V5.86523H15.9069V19.6218Z" fill="white"/>
<path d="M22.7364 17.6137H29.6143V19.6218H20.5273V5.86523H22.7364V17.6137Z" fill="white"/>
<path d="M35.7906 17.6137H42.669V19.6218H33.5815V5.86523H35.7906V17.6137Z" fill="white"/>
<path d="M48.8439 19.6218H46.6346V5.86523H48.8439V19.6218Z" fill="white"/>
<path d="M64.3582 19.6218H62.0485L56.1242 9.68128V19.6218H53.9155V5.86523H56.2245L62.1491 15.8062V5.86523H64.3582V19.6218Z" fill="white"/>
<path d="M75.1533 12.1415H80.575V19.6218H78.7679L78.3663 18.6178C77.4124 19.3703 76.3078 19.7725 75.0024 19.7725C72.994 19.7725 71.3876 19.1198 70.1323 17.7645C68.8772 16.4081 68.2749 14.7513 68.2749 12.7433C68.2749 10.7352 68.8772 9.07847 70.1323 7.72272C71.3876 6.36718 72.9943 5.71436 75.0024 5.71436C77.5125 5.71436 79.3202 6.76858 80.3745 8.82694L78.4166 9.93179C77.764 8.47564 76.6092 7.72272 74.9521 7.72272C73.5963 7.72272 72.5421 8.22515 71.7389 9.17824C70.9359 10.1324 70.534 11.337 70.534 12.7932C70.534 14.2493 70.9359 15.404 71.7389 16.4081C72.5421 17.3622 73.5963 17.8642 74.9521 17.8642C76.0063 17.8642 76.8099 17.5628 77.4124 16.9101C78.0147 16.3083 78.3163 15.404 78.3163 14.2493H75.1028V12.1404L75.1533 12.1415Z" fill="white"/>
<path d="M100.106 12.3922C100.809 12.3922 101.361 12.1916 101.813 11.7904C102.214 11.3881 102.415 10.8363 102.415 10.1835C102.415 9.53081 102.214 8.97785 101.813 8.57667C101.41 8.17442 100.858 7.92394 100.106 7.92394H95.9891V12.3922H100.106ZM93.7295 5.86548H100.206C101.461 5.86548 102.516 6.26709 103.37 7.12062C104.222 7.92394 104.624 8.92797 104.624 10.1336C104.624 11.3383 104.172 12.3423 103.319 13.1956C102.465 13.999 101.361 14.4013 100.055 14.4013H95.9381V19.6231H93.7295V5.86548Z" fill="white"/>
<path d="M110.598 19.622H108.39V5.86548H110.598V19.622Z" fill="white"/>
<path d="M115.619 5.86523H125.108V7.87382H117.828V11.4887H123.802V13.4968H117.828V17.6137H125.158V19.6218H115.568V5.86523H115.619Z" fill="white"/>
<path d="M135.05 17.7648C136.656 17.7648 137.761 17.0123 138.412 15.5561L140.271 16.6599C139.769 17.665 139.065 18.4175 138.162 18.9694C137.259 19.5224 136.204 19.8238 134.999 19.8238C133.041 19.8238 131.484 19.1711 130.279 17.8147C129.075 16.4593 128.472 14.8026 128.472 12.7945C128.472 10.7865 129.075 9.12974 130.279 7.77442C131.484 6.41814 133.092 5.76562 134.999 5.76562C136.204 5.76562 137.259 6.06683 138.162 6.61915C139.065 7.17136 139.769 7.92406 140.271 8.92809L138.412 10.0329C137.761 8.57785 136.606 7.82431 135.05 7.82431C133.744 7.82431 132.689 8.32631 131.937 9.28045C131.183 10.2335 130.781 11.4392 130.781 12.8444C130.781 14.3006 131.183 15.4553 131.937 16.4095C132.689 17.2628 133.694 17.7648 135.05 17.7648Z" fill="white"/>
<path d="M144.036 5.86523H153.525V7.87382H146.245V11.4887H152.22V13.4968H146.245V17.6137H153.575V19.6218H143.986V5.86523H144.036Z" fill="white"/>
<path d="M168.335 15.505C168.335 16.9612 167.884 18.0151 166.93 18.7188C165.976 19.4214 164.72 19.7727 163.164 19.7727C160.403 19.7727 158.294 18.8185 156.938 16.9113L158.846 15.8064C159.8 17.1119 161.256 17.7646 163.214 17.7646C163.565 17.7646 163.968 17.7137 164.268 17.6648C164.619 17.6139 164.922 17.4632 165.273 17.3125C165.624 17.1618 165.875 16.9113 166.077 16.6099C166.277 16.3085 166.377 15.9572 166.377 15.505C166.377 15.003 166.226 14.6517 165.875 14.3503C165.524 14.0489 165.122 13.8982 164.619 13.7984C164.117 13.6976 163.516 13.6477 162.913 13.5967C162.26 13.5469 161.658 13.497 161.006 13.3961C160.353 13.2964 159.8 13.1457 159.299 12.8941C158.796 12.6935 158.345 12.2913 158.043 11.7893C157.692 11.2873 157.541 10.6346 157.541 9.83112C157.541 8.42591 158.043 7.42146 158.997 6.71853C159.951 6.01561 161.206 5.66431 162.712 5.66431C165.222 5.66431 166.93 6.41732 167.833 7.92389L165.926 8.9778C165.624 8.57662 165.173 8.22425 164.569 7.97378C163.968 7.72277 163.365 7.62237 162.712 7.62237C162.16 7.62237 161.708 7.67246 161.257 7.82306C160.805 7.97377 160.403 8.17437 160.051 8.52567C159.7 8.87803 159.549 9.27922 159.549 9.78123C159.549 10.2334 159.7 10.5847 160.051 10.8351C160.404 11.0867 160.805 11.2873 161.357 11.3372C161.91 11.438 162.462 11.4879 163.114 11.5388C163.767 11.5887 164.37 11.6885 165.022 11.7893C165.674 11.8901 166.227 12.0907 166.779 12.2913C167.332 12.493 167.804 12.788 168.085 13.446C168.365 14.1051 168.335 14.7016 168.335 15.505Z" fill="white"/>
<path d="M0.645752 0.343018H9.73324V2.35139H0.645752V0.343018Z" fill="white"/>
<path d="M156.938 23.1372H168.335V25.1453H156.938V23.1372Z" fill="white"/>
</svg>
