<svg width="25" height="24" viewBox="0 0 25 24" fill="none" xmlns="http://www.w3.org/2000/svg">
<g clip-path="url(#clip0_1_48141)">
<path d="M12.2381 5.83887C8.83508 5.83887 6.08008 8.59687 6.08008 11.9969C6.08008 15.3999 8.83808 18.1549 12.2381 18.1549C15.6411 18.1549 18.3961 15.3969 18.3961 11.9969C18.3961 8.59387 15.6381 5.83887 12.2381 5.83887ZM12.2381 15.9939C10.0291 15.9939 8.24108 14.2049 8.24108 11.9969C8.24108 9.78887 10.0301 7.99987 12.2381 7.99987C14.4461 7.99987 16.2351 9.78887 16.2351 11.9969C16.2361 14.2049 14.4471 15.9939 12.2381 15.9939Z" fill="#52B0AC"/>
<path d="M17.1826 0.0773398C14.9746 -0.0256602 9.5056 -0.0206602 7.2956 0.0773398C5.3536 0.16834 3.6406 0.63734 2.2596 2.01834C-0.0483978 4.32634 0.246602 7.43634 0.246602 11.9973C0.246602 16.6653 -0.0133977 19.7033 2.2596 21.9763C4.5766 24.2923 7.7316 23.9893 12.2386 23.9893C16.8626 23.9893 18.4586 23.9923 20.0936 23.3593C22.3166 22.4963 23.9946 20.5093 24.1586 16.9403C24.2626 14.7313 24.2566 9.26334 24.1586 7.05334C23.9606 2.84034 21.6996 0.28534 17.1826 0.0773398ZM20.6776 20.4493C19.1646 21.9623 17.0656 21.8273 12.2096 21.8273C7.2096 21.8273 5.2046 21.9013 3.7416 20.4343C2.0566 18.7573 2.3616 16.0643 2.3616 11.9813C2.3616 6.45634 1.7946 2.47734 7.3396 2.19334C8.6136 2.14834 8.9886 2.13334 12.1956 2.13334L12.2406 2.16334C17.5696 2.16334 21.7506 1.60534 22.0016 7.14934C22.0586 8.41434 22.0716 8.79434 22.0716 11.9963C22.0706 16.9383 22.1646 18.9553 20.6776 20.4493Z" fill="#52B0AC"/>
<path d="M18.6404 7.03474C19.4352 7.03474 20.0794 6.39048 20.0794 5.59574C20.0794 4.801 19.4352 4.15674 18.6404 4.15674C17.8457 4.15674 17.2014 4.801 17.2014 5.59574C17.2014 6.39048 17.8457 7.03474 18.6404 7.03474Z" fill="#52B0AC"/>
</g>
<defs>
<clipPath id="clip0_1_48141">
<rect width="24" height="24" fill="white" transform="translate(0.234375 0.000976562)"/>
</clipPath>
</defs>
</svg>
