<svg width="25" height="20" viewBox="0 0 25 20" fill="none" xmlns="http://www.w3.org/2000/svg">
<path d="M24.2344 2.55948C23.3419 2.95098 22.3909 3.21048 21.3994 3.33648C22.4194 2.72748 23.1979 1.77048 23.5639 0.616976C22.6129 1.18398 21.5629 1.58448 20.4439 1.80798C19.5409 0.846477 18.2539 0.250977 16.8499 0.250977C14.1259 0.250977 11.9329 2.46198 11.9329 5.17248C11.9329 5.56248 11.9659 5.93748 12.0469 6.29448C7.95638 6.09498 4.33687 4.13448 1.90538 1.14798C1.48088 1.88448 1.23188 2.72748 1.23188 3.63498C1.23188 5.33898 2.10938 6.84948 3.41738 7.72398C2.62687 7.70898 1.85137 7.47948 1.19437 7.11798C1.19437 7.13298 1.19437 7.15248 1.19437 7.17198C1.19437 9.56298 2.89987 11.549 5.13637 12.0065C4.73587 12.116 4.29938 12.1685 3.84637 12.1685C3.53137 12.1685 3.21337 12.1505 2.91488 12.0845C3.55237 14.033 5.36138 15.4655 7.51238 15.512C5.83838 16.8215 3.71288 17.6105 1.41188 17.6105C1.00838 17.6105 0.621375 17.5925 0.234375 17.543C2.41387 18.9485 4.99688 19.751 7.78238 19.751C16.8364 19.751 21.7864 12.251 21.7864 5.74998C21.7864 5.53248 21.7789 5.32248 21.7684 5.11398C22.7449 4.42098 23.5654 3.55548 24.2344 2.55948Z" fill="#52B0AC"/>
</svg>
