<svg width="138" height="19" viewBox="0 0 138 19" fill="none" xmlns="http://www.w3.org/2000/svg">
<path d="M11.2019 18.7655H9.33416L0.699341 0.746826H3.10062L10.3044 15.7258L17.4598 0.746826H19.861L11.2019 18.7655Z" fill="white"/>
<path d="M40.6474 18.7655L37.6883 12.5662H28.9563L26.0942 18.7655H23.7172L32.3521 0.746826H34.5351L43.0245 18.7655H40.6474ZM33.4193 3.32779L30.0236 10.4679H36.7423L33.4193 3.32779Z" fill="white"/>
<path d="M64.0303 18.7655L52.2181 4.0997V18.7655H50.0836V0.746826H52.2181L64.0303 15.6059V0.746826H66.1894V18.7655H64.0303Z" fill="white"/>
<path d="M76.4003 18.7656V0.7229H78.5346V18.7656H76.4003Z" fill="white"/>
<path d="M88.6482 18.7655V0.746826H90.7815V16.6428H102.207V18.7655H88.6482Z" fill="white"/>
<path d="M109.167 18.7656V0.7229H111.302V18.7656H109.167Z" fill="white"/>
<path d="M135.146 18.7655L132.187 12.5662H123.456L120.593 18.7655H118.216L126.851 0.746826H129.034L137.524 18.7655H135.146ZM127.919 3.32779L124.522 10.4679H131.242L127.919 3.32779Z" fill="white"/>
</svg>
