<svg width="25" height="24" viewBox="0 0 25 24" fill="none" xmlns="http://www.w3.org/2000/svg">
<g clip-path="url(#clip0_1_48138)">
<path d="M17.7414 14.3081L17.7324 14.3831C15.5334 13.2871 15.3034 13.1411 15.0194 13.5671C14.8224 13.8621 14.2484 14.5311 14.0754 14.7291C13.9004 14.9241 13.7264 14.9391 13.4294 14.8041C13.1294 14.6541 12.1664 14.3391 11.0264 13.3191C10.1384 12.5241 9.54239 11.5491 9.36639 11.2491C9.07339 10.7431 9.68639 10.6711 10.2444 9.61515C10.3444 9.40515 10.2934 9.24015 10.2194 9.09115C10.1444 8.94115 9.54739 7.47115 9.29739 6.88515C9.05739 6.30115 8.81039 6.37515 8.62539 6.37515C8.04939 6.32515 7.62839 6.33315 7.25739 6.71915C5.64339 8.49315 6.05039 10.3231 7.43139 12.2691C10.1454 15.8211 11.5914 16.4751 14.2354 17.3831C14.9494 17.6101 15.6004 17.5781 16.1154 17.5041C16.6894 17.4131 17.8824 16.7831 18.1314 16.0781C18.3864 15.3731 18.3864 14.7881 18.3114 14.6531C18.2374 14.5181 18.0414 14.4431 17.7414 14.3081Z" fill="#52B0AC"/>
<path d="M20.7544 3.44943C13.0654 -3.98357 0.340375 1.40743 0.335375 11.8934C0.335375 13.9894 0.884375 16.0334 1.93037 17.8384L0.234375 24.0004L6.56938 22.3484C14.4744 26.6184 24.2304 20.9484 24.2344 11.8994C24.2344 8.72343 22.9944 5.73443 20.7394 3.48843L20.7544 3.44943ZM22.2364 11.8664C22.2304 19.4994 13.8514 24.2664 7.22437 20.3704L6.86438 20.1564L3.11438 21.1314L4.11937 17.4864L3.88037 17.1114C-0.243625 10.5464 4.49437 1.96643 12.3064 1.96643C14.9604 1.96643 17.4514 3.00143 19.3274 4.87643C21.2024 6.73543 22.2364 9.22643 22.2364 11.8664Z" fill="#52B0AC"/>
</g>
<defs>
<clipPath id="clip0_1_48138">
<rect width="24" height="24" fill="white" transform="translate(0.234375 0.000976562)"/>
</clipPath>
</defs>
</svg>
